<?xml version="1.0" encoding="UTF-8" standalone="no"?>
<!DOCTYPE svg PUBLIC "-//W3C//DTD SVG 1.1//EN"
 "http://www.w3.org/Graphics/SVG/1.1/DTD/svg11.dtd">
<!-- Generated by graphviz version 2.43.0 (0)
 -->
<!-- Title: %3 Pages: 1 -->
<svg width="672pt" height="165pt"
 viewBox="0.00 0.00 672.00 164.74" xmlns="http://www.w3.org/2000/svg" xmlns:xlink="http://www.w3.org/1999/xlink">
<g id="graph0" class="graph" transform="scale(1 1) rotate(0) translate(36 128.74)">
<title>%3</title>
<polygon fill="dimgray" stroke="transparent" points="-36,36 -36,-128.74 636,-128.74 636,36 -36,36"/>
<text text-anchor="middle" x="300" y="-77.54" font-family="Helvetica,sans-Serif" font-size="14.00">Sweep&#39;s Plan &amp; Progress</text>
<!-- start -->
<g id="node1" class="node">
<title>start</title>
</g>
<!-- 3ea16001&#45;7479&#45;406d&#45;8e22&#45;c57e0c3f94c8 -->
<g id="node3" class="node">
<title>3ea16001&#45;7479&#45;406d&#45;8e22&#45;c57e0c3f94c8</title>
<ellipse fill="yellow" stroke="black" cx="168.5" cy="-26.87" rx="115.93" ry="26.74"/>
<text text-anchor="middle" x="168.5" y="-30.67" font-family="Helvetica,sans-Serif" font-size="14.00">⋯ Create</text>
<text text-anchor="middle" x="168.5" y="-15.67" font-family="Helvetica,sans-Serif" font-size="14.00">mspaint/mspaint.cpp</text>
</g>
<!-- start&#45;&gt;3ea16001&#45;7479&#45;406d&#45;8e22&#45;c57e0c3f94c8 -->
<g id="edge2" class="edge">
<title>start&#45;&gt;3ea16001&#45;7479&#45;406d&#45;8e22&#45;c57e0c3f94c8</title>
<path fill="none" stroke="black" d="M1.25,-26.87C4.86,-26.87 21.18,-26.87 42.31,-26.87"/>
<polygon fill="black" stroke="black" points="42.33,-30.37 52.33,-26.87 42.33,-23.37 42.33,-30.37"/>
<text text-anchor="middle" x="26.77" y="-33.67" font-family="Helvetica,sans-Serif" font-size="14.00">Start</text>
</g>
<!-- end -->
<g id="node2" class="node">
<title>end</title>
</g>
<!-- 8f6abc89&#45;53ee&#45;4ee4&#45;9551&#45;120da63a50f1 -->
<g id="node4" class="node">
<title>8f6abc89&#45;53ee&#45;4ee4&#45;9551&#45;120da63a50f1</title>
<ellipse fill="white" stroke="black" cx="430.5" cy="-26.87" rx="111.03" ry="26.74"/>
<text text-anchor="middle" x="430.5" y="-30.67" font-family="Helvetica,sans-Serif" font-size="14.00">▶ Modify</text>
<text text-anchor="middle" x="430.5" y="-15.67" font-family="Helvetica,sans-Serif" font-size="14.00">mspaint/pbrush.cpp</text>
</g>
<!-- 3ea16001&#45;7479&#45;406d&#45;8e22&#45;c57e0c3f94c8&#45;&gt;8f6abc89&#45;53ee&#45;4ee4&#45;9551&#45;120da63a50f1 -->
<g id="edge1" class="edge">
<title>3ea16001&#45;7479&#45;406d&#45;8e22&#45;c57e0c3f94c8&#45;&gt;8f6abc89&#45;53ee&#45;4ee4&#45;9551&#45;120da63a50f1</title>
<path fill="none" stroke="black" d="M284.66,-26.87C292.9,-26.87 301.13,-26.87 309.37,-26.87"/>
<polygon fill="black" stroke="black" points="309.41,-30.37 319.41,-26.87 309.41,-23.37 309.41,-30.37"/>
</g>
<!-- 8f6abc89&#45;53ee&#45;4ee4&#45;9551&#45;120da63a50f1&#45;&gt;end -->
<g id="edge3" class="edge">
<title>8f6abc89&#45;53ee&#45;4ee4&#45;9551&#45;120da63a50f1&#45;&gt;end</title>
<path fill="none" stroke="black" d="M541.81,-26.87C561.08,-26.87 578.27,-26.87 588.77,-26.87"/>
<polygon fill="black" stroke="black" points="588.83,-30.37 598.83,-26.87 588.83,-23.37 588.83,-30.37"/>
<text text-anchor="middle" x="570.26" y="-33.67" font-family="Helvetica,sans-Serif" font-size="14.00">Finish</text>
</g>
</g>
</svg>
