<?xml version="1.0" encoding="UTF-8" standalone="no"?>
<!DOCTYPE svg PUBLIC "-//W3C//DTD SVG 1.1//EN"
 "http://www.w3.org/Graphics/SVG/1.1/DTD/svg11.dtd">
<!-- Generated by graphviz version 2.43.0 (0)
 -->
<!-- Title: %3 Pages: 1 -->
<svg width="1210pt" height="165pt"
 viewBox="0.00 0.00 1210.00 164.74" xmlns="http://www.w3.org/2000/svg" xmlns:xlink="http://www.w3.org/1999/xlink">
<g id="graph0" class="graph" transform="scale(1 1) rotate(0) translate(36 128.74)">
<title>%3</title>
<polygon fill="dimgray" stroke="transparent" points="-36,36 -36,-128.74 1174,-128.74 1174,36 -36,36"/>
<text text-anchor="middle" x="569" y="-77.54" font-family="Helvetica,sans-Serif" font-size="14.00">Sweep&#39;s Plan &amp; Progress</text>
<!-- start -->
<g id="node1" class="node">
<title>start</title>
</g>
<!-- 04f2b214&#45;afbc&#45;4fd3&#45;a15a&#45;376b312cefec -->
<g id="node3" class="node">
<title>04f2b214&#45;afbc&#45;4fd3&#45;a15a&#45;376b312cefec</title>
<ellipse fill="yellow" stroke="black" cx="168.5" cy="-26.87" rx="115.93" ry="26.74"/>
<text text-anchor="middle" x="168.5" y="-30.67" font-family="Helvetica,sans-Serif" font-size="14.00">⋯ Create</text>
<text text-anchor="middle" x="168.5" y="-15.67" font-family="Helvetica,sans-Serif" font-size="14.00">mspaint/mspaint.cpp</text>
</g>
<!-- start&#45;&gt;04f2b214&#45;afbc&#45;4fd3&#45;a15a&#45;376b312cefec -->
<g id="edge4" class="edge">
<title>start&#45;&gt;04f2b214&#45;afbc&#45;4fd3&#45;a15a&#45;376b312cefec</title>
<path fill="none" stroke="black" d="M1.25,-26.87C4.86,-26.87 21.18,-26.87 42.31,-26.87"/>
<polygon fill="black" stroke="black" points="42.33,-30.37 52.33,-26.87 42.33,-23.37 42.33,-30.37"/>
<text text-anchor="middle" x="26.77" y="-33.67" font-family="Helvetica,sans-Serif" font-size="14.00">Start</text>
</g>
<!-- end -->
<g id="node2" class="node">
<title>end</title>
</g>
<!-- bc677019&#45;9fdb&#45;422e&#45;9932&#45;16c558dc2f4f -->
<g id="node4" class="node">
<title>bc677019&#45;9fdb&#45;422e&#45;9932&#45;16c558dc2f4f</title>
<ellipse fill="white" stroke="black" cx="430.5" cy="-26.87" rx="111.03" ry="26.74"/>
<text text-anchor="middle" x="430.5" y="-30.67" font-family="Helvetica,sans-Serif" font-size="14.00">▶ Modify</text>
<text text-anchor="middle" x="430.5" y="-15.67" font-family="Helvetica,sans-Serif" font-size="14.00">mspaint/pbrush.cpp</text>
</g>
<!-- 04f2b214&#45;afbc&#45;4fd3&#45;a15a&#45;376b312cefec&#45;&gt;bc677019&#45;9fdb&#45;422e&#45;9932&#45;16c558dc2f4f -->
<g id="edge1" class="edge">
<title>04f2b214&#45;afbc&#45;4fd3&#45;a15a&#45;376b312cefec&#45;&gt;bc677019&#45;9fdb&#45;422e&#45;9932&#45;16c558dc2f4f</title>
<path fill="none" stroke="black" d="M284.66,-26.87C292.9,-26.87 301.13,-26.87 309.37,-26.87"/>
<polygon fill="black" stroke="black" points="309.41,-30.37 319.41,-26.87 309.41,-23.37 309.41,-30.37"/>
</g>
<!-- 55db1d4c&#45;27b6&#45;4f63&#45;91b0&#45;367f1781fc15 -->
<g id="node5" class="node">
<title>55db1d4c&#45;27b6&#45;4f63&#45;91b0&#45;367f1781fc15</title>
<ellipse fill="white" stroke="black" cx="692.5" cy="-26.87" rx="115.02" ry="26.74"/>
<text text-anchor="middle" x="692.5" y="-30.67" font-family="Helvetica,sans-Serif" font-size="14.00">▶ Modify</text>
<text text-anchor="middle" x="692.5" y="-15.67" font-family="Helvetica,sans-Serif" font-size="14.00">mspaint/imgwnd.cpp</text>
</g>
<!-- bc677019&#45;9fdb&#45;422e&#45;9932&#45;16c558dc2f4f&#45;&gt;55db1d4c&#45;27b6&#45;4f63&#45;91b0&#45;367f1781fc15 -->
<g id="edge2" class="edge">
<title>bc677019&#45;9fdb&#45;422e&#45;9932&#45;16c558dc2f4f&#45;&gt;55db1d4c&#45;27b6&#45;4f63&#45;91b0&#45;367f1781fc15</title>
<path fill="none" stroke="black" d="M541.54,-26.87C550.09,-26.87 558.64,-26.87 567.18,-26.87"/>
<polygon fill="black" stroke="black" points="567.22,-30.37 577.22,-26.87 567.22,-23.37 567.22,-30.37"/>
</g>
<!-- 92c5badf&#45;d57a&#45;4497&#45;b518&#45;961d393a1b68 -->
<g id="node6" class="node">
<title>92c5badf&#45;d57a&#45;4497&#45;b518&#45;961d393a1b68</title>
<ellipse fill="white" stroke="black" cx="961.5" cy="-26.87" rx="118.17" ry="26.74"/>
<text text-anchor="middle" x="961.5" y="-30.67" font-family="Helvetica,sans-Serif" font-size="14.00">▶ Modify</text>
<text text-anchor="middle" x="961.5" y="-15.67" font-family="Helvetica,sans-Serif" font-size="14.00">mspaint/imgtools.cpp</text>
</g>
<!-- 55db1d4c&#45;27b6&#45;4f63&#45;91b0&#45;367f1781fc15&#45;&gt;92c5badf&#45;d57a&#45;4497&#45;b518&#45;961d393a1b68 -->
<g id="edge3" class="edge">
<title>55db1d4c&#45;27b6&#45;4f63&#45;91b0&#45;367f1781fc15&#45;&gt;92c5badf&#45;d57a&#45;4497&#45;b518&#45;961d393a1b68</title>
<path fill="none" stroke="black" d="M807.82,-26.87C816.22,-26.87 824.61,-26.87 833,-26.87"/>
<polygon fill="black" stroke="black" points="833.24,-30.37 843.24,-26.87 833.24,-23.37 833.24,-30.37"/>
</g>
<!-- 92c5badf&#45;d57a&#45;4497&#45;b518&#45;961d393a1b68&#45;&gt;end -->
<g id="edge5" class="edge">
<title>92c5badf&#45;d57a&#45;4497&#45;b518&#45;961d393a1b68&#45;&gt;end</title>
<path fill="none" stroke="black" d="M1079.87,-26.87C1099.03,-26.87 1116,-26.87 1126.48,-26.87"/>
<polygon fill="black" stroke="black" points="1126.84,-30.37 1136.84,-26.87 1126.84,-23.37 1126.84,-30.37"/>
<text text-anchor="middle" x="1108.29" y="-33.67" font-family="Helvetica,sans-Serif" font-size="14.00">Finish</text>
</g>
</g>
</svg>
