<?xml version="1.0" encoding="UTF-8" standalone="no"?>
<!DOCTYPE svg PUBLIC "-//W3C//DTD SVG 1.1//EN"
 "http://www.w3.org/Graphics/SVG/1.1/DTD/svg11.dtd">
<!-- Generated by graphviz version 2.43.0 (0)
 -->
<!-- Title: %3 Pages: 1 -->
<svg width="875pt" height="165pt"
 viewBox="0.00 0.00 875.00 164.74" xmlns="http://www.w3.org/2000/svg" xmlns:xlink="http://www.w3.org/1999/xlink">
<g id="graph0" class="graph" transform="scale(1 1) rotate(0) translate(36 128.74)">
<title>%3</title>
<polygon fill="dimgray" stroke="transparent" points="-36,36 -36,-128.74 839,-128.74 839,36 -36,36"/>
<text text-anchor="middle" x="401.5" y="-77.54" font-family="Helvetica,sans-Serif" font-size="14.00">Sweep&#39;s Plan &amp; Progress</text>
<!-- start -->
<g id="node1" class="node">
<title>start</title>
</g>
<!-- a3780334&#45;a36f&#45;40c3&#45;9bce&#45;ab9d090169f5 -->
<g id="node3" class="node">
<title>a3780334&#45;a36f&#45;40c3&#45;9bce&#45;ab9d090169f5</title>
<ellipse fill="#ee0000" stroke="black" cx="157.5" cy="-26.87" rx="105.22" ry="26.74"/>
<text text-anchor="middle" x="157.5" y="-30.67" font-family="Helvetica,sans-Serif" font-size="14.00">✗ Modify</text>
<text text-anchor="middle" x="157.5" y="-15.67" font-family="Helvetica,sans-Serif" font-size="14.00">mspaint/global.cpp</text>
</g>
<!-- start&#45;&gt;a3780334&#45;a36f&#45;40c3&#45;9bce&#45;ab9d090169f5 -->
<g id="edge3" class="edge">
<title>start&#45;&gt;a3780334&#45;a36f&#45;40c3&#45;9bce&#45;ab9d090169f5</title>
<path fill="none" stroke="black" d="M1.2,-26.87C4.69,-26.87 20.91,-26.87 41.67,-26.87"/>
<polygon fill="black" stroke="black" points="41.84,-30.37 51.84,-26.87 41.84,-23.37 41.84,-30.37"/>
<text text-anchor="middle" x="26.57" y="-33.67" font-family="Helvetica,sans-Serif" font-size="14.00">Start</text>
</g>
<!-- end -->
<g id="node2" class="node">
<title>end</title>
</g>
<!-- f324ff03&#45;cff3&#45;4de1&#45;b712&#45;7fcf1762b5a3 -->
<g id="node4" class="node">
<title>f324ff03&#45;cff3&#45;4de1&#45;b712&#45;7fcf1762b5a3</title>
<ellipse fill="yellow" stroke="black" cx="392.5" cy="-26.87" rx="94.09" ry="26.74"/>
<text text-anchor="middle" x="392.5" y="-30.67" font-family="Helvetica,sans-Serif" font-size="14.00">⋯ Modify</text>
<text text-anchor="middle" x="392.5" y="-15.67" font-family="Helvetica,sans-Serif" font-size="14.00">mspaint/global.h</text>
</g>
<!-- a3780334&#45;a36f&#45;40c3&#45;9bce&#45;ab9d090169f5&#45;&gt;f324ff03&#45;cff3&#45;4de1&#45;b712&#45;7fcf1762b5a3 -->
<g id="edge1" class="edge">
<title>a3780334&#45;a36f&#45;40c3&#45;9bce&#45;ab9d090169f5&#45;&gt;f324ff03&#45;cff3&#45;4de1&#45;b712&#45;7fcf1762b5a3</title>
<path fill="none" stroke="black" d="M263.07,-26.87C271.39,-26.87 279.72,-26.87 288.05,-26.87"/>
<polygon fill="black" stroke="black" points="288.21,-30.37 298.21,-26.87 288.21,-23.37 288.21,-30.37"/>
</g>
<!-- b588d872&#45;15d7&#45;4072&#45;97ad&#45;4f5ba06f654a -->
<g id="node5" class="node">
<title>b588d872&#45;15d7&#45;4072&#45;97ad&#45;4f5ba06f654a</title>
<ellipse fill="white" stroke="black" cx="633.5" cy="-26.87" rx="111.03" ry="26.74"/>
<text text-anchor="middle" x="633.5" y="-30.67" font-family="Helvetica,sans-Serif" font-size="14.00">▶ Modify</text>
<text text-anchor="middle" x="633.5" y="-15.67" font-family="Helvetica,sans-Serif" font-size="14.00">mspaint/pbrush.cpp</text>
</g>
<!-- f324ff03&#45;cff3&#45;4de1&#45;b712&#45;7fcf1762b5a3&#45;&gt;b588d872&#45;15d7&#45;4072&#45;97ad&#45;4f5ba06f654a -->
<g id="edge2" class="edge">
<title>f324ff03&#45;cff3&#45;4de1&#45;b712&#45;7fcf1762b5a3&#45;&gt;b588d872&#45;15d7&#45;4072&#45;97ad&#45;4f5ba06f654a</title>
<path fill="none" stroke="black" d="M486.64,-26.87C495.16,-26.87 503.68,-26.87 512.2,-26.87"/>
<polygon fill="black" stroke="black" points="512.21,-30.37 522.21,-26.87 512.21,-23.37 512.21,-30.37"/>
</g>
<!-- b588d872&#45;15d7&#45;4072&#45;97ad&#45;4f5ba06f654a&#45;&gt;end -->
<g id="edge4" class="edge">
<title>b588d872&#45;15d7&#45;4072&#45;97ad&#45;4f5ba06f654a&#45;&gt;end</title>
<path fill="none" stroke="black" d="M744.81,-26.87C764.08,-26.87 781.27,-26.87 791.77,-26.87"/>
<polygon fill="black" stroke="black" points="791.83,-30.37 801.83,-26.87 791.83,-23.37 791.83,-30.37"/>
<text text-anchor="middle" x="773.26" y="-33.67" font-family="Helvetica,sans-Serif" font-size="14.00">Finish</text>
</g>
</g>
</svg>
