<?xml version="1.0" encoding="UTF-8" standalone="no"?>
<!DOCTYPE svg PUBLIC "-//W3C//DTD SVG 1.1//EN"
 "http://www.w3.org/Graphics/SVG/1.1/DTD/svg11.dtd">
<!-- Generated by graphviz version 2.43.0 (0)
 -->
<!-- Title: %3 Pages: 1 -->
<svg width="1688pt" height="165pt"
 viewBox="0.00 0.00 1688.00 164.74" xmlns="http://www.w3.org/2000/svg" xmlns:xlink="http://www.w3.org/1999/xlink">
<g id="graph0" class="graph" transform="scale(1 1) rotate(0) translate(36 128.74)">
<title>%3</title>
<polygon fill="dimgray" stroke="transparent" points="-36,36 -36,-128.74 1652,-128.74 1652,36 -36,36"/>
<text text-anchor="middle" x="808" y="-77.54" font-family="Helvetica,sans-Serif" font-size="14.00">Sweep&#39;s Plan &amp; Progress</text>
<!-- start -->
<g id="node1" class="node">
<title>start</title>
</g>
<!-- 1e897f70&#45;e05b&#45;40a6&#45;885c&#45;d4e98b8f6f17 -->
<g id="node3" class="node">
<title>1e897f70&#45;e05b&#45;40a6&#45;885c&#45;d4e98b8f6f17</title>
<ellipse fill="#ee0000" stroke="black" cx="163.5" cy="-26.87" rx="111.03" ry="26.74"/>
<text text-anchor="middle" x="163.5" y="-30.67" font-family="Helvetica,sans-Serif" font-size="14.00">✗ Modify</text>
<text text-anchor="middle" x="163.5" y="-15.67" font-family="Helvetica,sans-Serif" font-size="14.00">mspaint/pbrush.cpp</text>
</g>
<!-- start&#45;&gt;1e897f70&#45;e05b&#45;40a6&#45;885c&#45;d4e98b8f6f17 -->
<g id="edge4" class="edge">
<title>start&#45;&gt;1e897f70&#45;e05b&#45;40a6&#45;885c&#45;d4e98b8f6f17</title>
<path fill="none" stroke="black" d="M1.23,-26.87C4.78,-26.87 20.96,-26.87 41.84,-26.87"/>
<polygon fill="black" stroke="black" points="42.08,-30.37 52.08,-26.87 42.08,-23.37 42.08,-30.37"/>
<text text-anchor="middle" x="26.74" y="-33.67" font-family="Helvetica,sans-Serif" font-size="14.00">Start</text>
</g>
<!-- end -->
<g id="node2" class="node">
<title>end</title>
</g>
<!-- 140ffbdc&#45;f3e1&#45;40d0&#45;8fba&#45;24e4b1127747 -->
<g id="node4" class="node">
<title>140ffbdc&#45;f3e1&#45;40d0&#45;8fba&#45;24e4b1127747</title>
<ellipse fill="yellow" stroke="black" cx="491.5" cy="-26.87" rx="181.95" ry="26.74"/>
<text text-anchor="middle" x="491.5" y="-30.67" font-family="Helvetica,sans-Serif" font-size="14.00">⋯ Modify</text>
<text text-anchor="middle" x="491.5" y="-15.67" font-family="Helvetica,sans-Serif" font-size="14.00">mspaint/gdiplus/gdiplusgraphics.h</text>
</g>
<!-- 1e897f70&#45;e05b&#45;40a6&#45;885c&#45;d4e98b8f6f17&#45;&gt;140ffbdc&#45;f3e1&#45;40d0&#45;8fba&#45;24e4b1127747 -->
<g id="edge1" class="edge">
<title>1e897f70&#45;e05b&#45;40a6&#45;885c&#45;d4e98b8f6f17&#45;&gt;140ffbdc&#45;f3e1&#45;40d0&#45;8fba&#45;24e4b1127747</title>
<path fill="none" stroke="black" d="M274.65,-26.87C282.88,-26.87 291.11,-26.87 299.34,-26.87"/>
<polygon fill="black" stroke="black" points="299.38,-30.37 309.38,-26.87 299.38,-23.37 299.38,-30.37"/>
</g>
<!-- 32e23d0b&#45;be74&#45;47e6&#45;aa7c&#45;6872b37da800 -->
<g id="node5" class="node">
<title>32e23d0b&#45;be74&#45;47e6&#45;aa7c&#45;6872b37da800</title>
<ellipse fill="white" stroke="black" cx="924.5" cy="-26.87" rx="215.84" ry="26.74"/>
<text text-anchor="middle" x="924.5" y="-30.67" font-family="Helvetica,sans-Serif" font-size="14.00">▶ Create</text>
<text text-anchor="middle" x="924.5" y="-15.67" font-family="Helvetica,sans-Serif" font-size="14.00">mspaint/imgtools.cpp mspaint/imgtools.h</text>
</g>
<!-- 140ffbdc&#45;f3e1&#45;40d0&#45;8fba&#45;24e4b1127747&#45;&gt;32e23d0b&#45;be74&#45;47e6&#45;aa7c&#45;6872b37da800 -->
<g id="edge2" class="edge">
<title>140ffbdc&#45;f3e1&#45;40d0&#45;8fba&#45;24e4b1127747&#45;&gt;32e23d0b&#45;be74&#45;47e6&#45;aa7c&#45;6872b37da800</title>
<path fill="none" stroke="black" d="M673.33,-26.87C681.7,-26.87 690.07,-26.87 698.44,-26.87"/>
<polygon fill="black" stroke="black" points="698.65,-30.37 708.65,-26.87 698.65,-23.37 698.65,-30.37"/>
</g>
<!-- b00913de&#45;2224&#45;4b8f&#45;909a&#45;26c5c667e9e9 -->
<g id="node6" class="node">
<title>b00913de&#45;2224&#45;4b8f&#45;909a&#45;26c5c667e9e9</title>
<ellipse fill="white" stroke="black" cx="1366.5" cy="-26.87" rx="190.84" ry="26.74"/>
<text text-anchor="middle" x="1366.5" y="-30.67" font-family="Helvetica,sans-Serif" font-size="14.00">▶ Create</text>
<text text-anchor="middle" x="1366.5" y="-15.67" font-family="Helvetica,sans-Serif" font-size="14.00">mspaint/global.cpp mspaint/global.h</text>
</g>
<!-- 32e23d0b&#45;be74&#45;47e6&#45;aa7c&#45;6872b37da800&#45;&gt;b00913de&#45;2224&#45;4b8f&#45;909a&#45;26c5c667e9e9 -->
<g id="edge3" class="edge">
<title>32e23d0b&#45;be74&#45;47e6&#45;aa7c&#45;6872b37da800&#45;&gt;b00913de&#45;2224&#45;4b8f&#45;909a&#45;26c5c667e9e9</title>
<path fill="none" stroke="black" d="M1140.32,-26.87C1148.59,-26.87 1156.86,-26.87 1165.13,-26.87"/>
<polygon fill="black" stroke="black" points="1165.22,-30.37 1175.22,-26.87 1165.22,-23.37 1165.22,-30.37"/>
</g>
<!-- b00913de&#45;2224&#45;4b8f&#45;909a&#45;26c5c667e9e9&#45;&gt;end -->
<g id="edge5" class="edge">
<title>b00913de&#45;2224&#45;4b8f&#45;909a&#45;26c5c667e9e9&#45;&gt;end</title>
<path fill="none" stroke="black" d="M1557.43,-26.87C1577.65,-26.87 1594.57,-26.87 1604.83,-26.87"/>
<polygon fill="black" stroke="black" points="1604.87,-30.37 1614.87,-26.87 1604.87,-23.37 1604.87,-30.37"/>
<text text-anchor="middle" x="1586.21" y="-33.67" font-family="Helvetica,sans-Serif" font-size="14.00">Finish</text>
</g>
</g>
</svg>
