<?xml version="1.0" encoding="UTF-8" standalone="no"?>
<!DOCTYPE svg PUBLIC "-//W3C//DTD SVG 1.1//EN"
 "http://www.w3.org/Graphics/SVG/1.1/DTD/svg11.dtd">
<!-- Generated by graphviz version 2.43.0 (0)
 -->
<!-- Title: %3 Pages: 1 -->
<svg width="913pt" height="165pt"
 viewBox="0.00 0.00 913.00 164.74" xmlns="http://www.w3.org/2000/svg" xmlns:xlink="http://www.w3.org/1999/xlink">
<g id="graph0" class="graph" transform="scale(1 1) rotate(0) translate(36 128.74)">
<title>%3</title>
<polygon fill="dimgray" stroke="transparent" points="-36,36 -36,-128.74 877,-128.74 877,36 -36,36"/>
<text text-anchor="middle" x="420.5" y="-77.54" font-family="Helvetica,sans-Serif" font-size="14.00">Sweep&#39;s Plan &amp; Progress</text>
<!-- start -->
<g id="node1" class="node">
<title>start</title>
</g>
<!-- f664e081&#45;ea2a&#45;4f3d&#45;b5f5&#45;0cab8966c804 -->
<g id="node3" class="node">
<title>f664e081&#45;ea2a&#45;4f3d&#45;b5f5&#45;0cab8966c804</title>
<ellipse fill="#0ee832" stroke="black" cx="168.5" cy="-26.87" rx="115.93" ry="26.74"/>
<text text-anchor="middle" x="168.5" y="-30.67" font-family="Helvetica,sans-Serif" font-size="14.00">✓ Create</text>
<text text-anchor="middle" x="168.5" y="-15.67" font-family="Helvetica,sans-Serif" font-size="14.00">mspaint/mspaint.cpp</text>
</g>
<!-- start&#45;&gt;f664e081&#45;ea2a&#45;4f3d&#45;b5f5&#45;0cab8966c804 -->
<g id="edge3" class="edge">
<title>start&#45;&gt;f664e081&#45;ea2a&#45;4f3d&#45;b5f5&#45;0cab8966c804</title>
<path fill="none" stroke="black" d="M1.25,-26.87C4.86,-26.87 21.18,-26.87 42.31,-26.87"/>
<polygon fill="black" stroke="black" points="42.33,-30.37 52.33,-26.87 42.33,-23.37 42.33,-30.37"/>
<text text-anchor="middle" x="26.77" y="-33.67" font-family="Helvetica,sans-Serif" font-size="14.00">Start</text>
</g>
<!-- end -->
<g id="node2" class="node">
<title>end</title>
</g>
<!-- 5ca4a200&#45;8330&#45;4678&#45;8e6c&#45;3adfc650617c -->
<g id="node4" class="node">
<title>5ca4a200&#45;8330&#45;4678&#45;8e6c&#45;3adfc650617c</title>
<ellipse fill="#0ee832" stroke="black" cx="430.5" cy="-26.87" rx="111.03" ry="26.74"/>
<text text-anchor="middle" x="430.5" y="-30.67" font-family="Helvetica,sans-Serif" font-size="14.00">✓ Modify</text>
<text text-anchor="middle" x="430.5" y="-15.67" font-family="Helvetica,sans-Serif" font-size="14.00">mspaint/pbrush.cpp</text>
</g>
<!-- f664e081&#45;ea2a&#45;4f3d&#45;b5f5&#45;0cab8966c804&#45;&gt;5ca4a200&#45;8330&#45;4678&#45;8e6c&#45;3adfc650617c -->
<g id="edge1" class="edge">
<title>f664e081&#45;ea2a&#45;4f3d&#45;b5f5&#45;0cab8966c804&#45;&gt;5ca4a200&#45;8330&#45;4678&#45;8e6c&#45;3adfc650617c</title>
<path fill="none" stroke="black" d="M284.66,-26.87C292.9,-26.87 301.13,-26.87 309.37,-26.87"/>
<polygon fill="black" stroke="black" points="309.41,-30.37 319.41,-26.87 309.41,-23.37 309.41,-30.37"/>
</g>
<!-- d119fbcb&#45;d72c&#45;4735&#45;b10e&#45;3d8cead24fbd -->
<g id="node5" class="node">
<title>d119fbcb&#45;d72c&#45;4735&#45;b10e&#45;3d8cead24fbd</title>
<ellipse fill="#0ee832" stroke="black" cx="679.5" cy="-26.87" rx="102.56" ry="26.74"/>
<text text-anchor="middle" x="679.5" y="-30.67" font-family="Helvetica,sans-Serif" font-size="14.00">✓ Create</text>
<text text-anchor="middle" x="679.5" y="-15.67" font-family="Helvetica,sans-Serif" font-size="14.00">mspaint/zoom.cpp</text>
</g>
<!-- 5ca4a200&#45;8330&#45;4678&#45;8e6c&#45;3adfc650617c&#45;&gt;d119fbcb&#45;d72c&#45;4735&#45;b10e&#45;3d8cead24fbd -->
<g id="edge2" class="edge">
<title>5ca4a200&#45;8330&#45;4678&#45;8e6c&#45;3adfc650617c&#45;&gt;d119fbcb&#45;d72c&#45;4735&#45;b10e&#45;3d8cead24fbd</title>
<path fill="none" stroke="black" d="M541.87,-26.87C550.15,-26.87 558.43,-26.87 566.71,-26.87"/>
<polygon fill="black" stroke="black" points="566.81,-30.37 576.81,-26.87 566.81,-23.37 566.81,-30.37"/>
</g>
<!-- d119fbcb&#45;d72c&#45;4735&#45;b10e&#45;3d8cead24fbd&#45;&gt;end -->
<g id="edge4" class="edge">
<title>d119fbcb&#45;d72c&#45;4735&#45;b10e&#45;3d8cead24fbd&#45;&gt;end</title>
<path fill="none" stroke="black" d="M782.38,-26.87C801.59,-26.87 818.95,-26.87 829.6,-26.87"/>
<polygon fill="black" stroke="black" points="829.82,-30.37 839.82,-26.87 829.82,-23.37 829.82,-30.37"/>
<text text-anchor="middle" x="811.02" y="-33.67" font-family="Helvetica,sans-Serif" font-size="14.00">Finish</text>
</g>
</g>
</svg>
