<?xml version="1.0" encoding="UTF-8" standalone="no"?>
<!DOCTYPE svg PUBLIC "-//W3C//DTD SVG 1.1//EN"
 "http://www.w3.org/Graphics/SVG/1.1/DTD/svg11.dtd">
<!-- Generated by graphviz version 2.43.0 (0)
 -->
<!-- Title: %3 Pages: 1 -->
<svg width="689pt" height="165pt"
 viewBox="0.00 0.00 689.00 164.74" xmlns="http://www.w3.org/2000/svg" xmlns:xlink="http://www.w3.org/1999/xlink">
<g id="graph0" class="graph" transform="scale(1 1) rotate(0) translate(36 128.74)">
<title>%3</title>
<polygon fill="dimgray" stroke="transparent" points="-36,36 -36,-128.74 653,-128.74 653,36 -36,36"/>
<text text-anchor="middle" x="308.5" y="-77.54" font-family="Helvetica,sans-Serif" font-size="14.00">Sweep&#39;s Plan &amp; Progress</text>
<!-- start -->
<g id="node1" class="node">
<title>start</title>
</g>
<!-- 0d222a33&#45;3735&#45;4d10&#45;afb4&#45;7e9abde56bcd -->
<g id="node3" class="node">
<title>0d222a33&#45;3735&#45;4d10&#45;afb4&#45;7e9abde56bcd</title>
<ellipse fill="yellow" stroke="black" cx="163.5" cy="-26.87" rx="111.03" ry="26.74"/>
<text text-anchor="middle" x="163.5" y="-30.67" font-family="Helvetica,sans-Serif" font-size="14.00">⋯ Modify</text>
<text text-anchor="middle" x="163.5" y="-15.67" font-family="Helvetica,sans-Serif" font-size="14.00">mspaint/pbrush.cpp</text>
</g>
<!-- start&#45;&gt;0d222a33&#45;3735&#45;4d10&#45;afb4&#45;7e9abde56bcd -->
<g id="edge2" class="edge">
<title>start&#45;&gt;0d222a33&#45;3735&#45;4d10&#45;afb4&#45;7e9abde56bcd</title>
<path fill="none" stroke="black" d="M1.23,-26.87C4.78,-26.87 20.96,-26.87 41.84,-26.87"/>
<polygon fill="black" stroke="black" points="42.08,-30.37 52.08,-26.87 42.08,-23.37 42.08,-30.37"/>
<text text-anchor="middle" x="26.74" y="-33.67" font-family="Helvetica,sans-Serif" font-size="14.00">Start</text>
</g>
<!-- end -->
<g id="node2" class="node">
<title>end</title>
</g>
<!-- 3c6d7c44&#45;71ef&#45;4ddb&#45;8d5a&#45;f24ea87ac656 -->
<g id="node4" class="node">
<title>3c6d7c44&#45;71ef&#45;4ddb&#45;8d5a&#45;f24ea87ac656</title>
<ellipse fill="white" stroke="black" cx="434.5" cy="-26.87" rx="124.4" ry="26.74"/>
<text text-anchor="middle" x="434.5" y="-30.67" font-family="Helvetica,sans-Serif" font-size="14.00">▶ Modify</text>
<text text-anchor="middle" x="434.5" y="-15.67" font-family="Helvetica,sans-Serif" font-size="14.00">mspaint/hlp/afxcore.rtf</text>
</g>
<!-- 0d222a33&#45;3735&#45;4d10&#45;afb4&#45;7e9abde56bcd&#45;&gt;3c6d7c44&#45;71ef&#45;4ddb&#45;8d5a&#45;f24ea87ac656 -->
<g id="edge1" class="edge">
<title>0d222a33&#45;3735&#45;4d10&#45;afb4&#45;7e9abde56bcd&#45;&gt;3c6d7c44&#45;71ef&#45;4ddb&#45;8d5a&#45;f24ea87ac656</title>
<path fill="none" stroke="black" d="M274.65,-26.87C283.01,-26.87 291.37,-26.87 299.73,-26.87"/>
<polygon fill="black" stroke="black" points="299.93,-30.37 309.93,-26.87 299.93,-23.37 299.93,-30.37"/>
</g>
<!-- 3c6d7c44&#45;71ef&#45;4ddb&#45;8d5a&#45;f24ea87ac656&#45;&gt;end -->
<g id="edge3" class="edge">
<title>3c6d7c44&#45;71ef&#45;4ddb&#45;8d5a&#45;f24ea87ac656&#45;&gt;end</title>
<path fill="none" stroke="black" d="M559.41,-26.87C578.53,-26.87 595.31,-26.87 605.65,-26.87"/>
<polygon fill="black" stroke="black" points="605.85,-30.37 615.85,-26.87 605.85,-23.37 605.85,-30.37"/>
<text text-anchor="middle" x="587.48" y="-33.67" font-family="Helvetica,sans-Serif" font-size="14.00">Finish</text>
</g>
</g>
</svg>
