<?xml version="1.0" encoding="UTF-8" standalone="no"?>
<!DOCTYPE svg PUBLIC "-//W3C//DTD SVG 1.1//EN"
 "http://www.w3.org/Graphics/SVG/1.1/DTD/svg11.dtd">
<!-- Generated by graphviz version 2.43.0 (0)
 -->
<!-- Title: %3 Pages: 1 -->
<svg width="904pt" height="165pt"
 viewBox="0.00 0.00 904.00 164.74" xmlns="http://www.w3.org/2000/svg" xmlns:xlink="http://www.w3.org/1999/xlink">
<g id="graph0" class="graph" transform="scale(1 1) rotate(0) translate(36 128.74)">
<title>%3</title>
<polygon fill="dimgray" stroke="transparent" points="-36,36 -36,-128.74 868,-128.74 868,36 -36,36"/>
<text text-anchor="middle" x="416" y="-77.54" font-family="Helvetica,sans-Serif" font-size="14.00">Sweep&#39;s Plan &amp; Progress</text>
<!-- start -->
<g id="node1" class="node">
<title>start</title>
</g>
<!-- e52e7483&#45;a2ef&#45;4bfe&#45;8182&#45;a27dffcf3fc6 -->
<g id="node3" class="node">
<title>e52e7483&#45;a2ef&#45;4bfe&#45;8182&#45;a27dffcf3fc6</title>
<ellipse fill="yellow" stroke="black" cx="213.5" cy="-26.87" rx="160.53" ry="26.74"/>
<text text-anchor="middle" x="213.5" y="-30.67" font-family="Helvetica,sans-Serif" font-size="14.00">⋯ Create</text>
<text text-anchor="middle" x="213.5" y="-15.67" font-family="Helvetica,sans-Serif" font-size="14.00">mspaint/gdiplus/zoom_slider.h</text>
</g>
<!-- start&#45;&gt;e52e7483&#45;a2ef&#45;4bfe&#45;8182&#45;a27dffcf3fc6 -->
<g id="edge2" class="edge">
<title>start&#45;&gt;e52e7483&#45;a2ef&#45;4bfe&#45;8182&#45;a27dffcf3fc6</title>
<path fill="none" stroke="black" d="M1.11,-26.87C4.4,-26.87 20.63,-26.87 42.77,-26.87"/>
<polygon fill="black" stroke="black" points="42.97,-30.37 52.97,-26.87 42.97,-23.37 42.97,-30.37"/>
<text text-anchor="middle" x="26.99" y="-33.67" font-family="Helvetica,sans-Serif" font-size="14.00">Start</text>
</g>
<!-- end -->
<g id="node2" class="node">
<title>end</title>
</g>
<!-- a628d95d&#45;14ca&#45;4aa4&#45;87c1&#45;89eadfcca040 -->
<g id="node4" class="node">
<title>a628d95d&#45;14ca&#45;4aa4&#45;87c1&#45;89eadfcca040</title>
<ellipse fill="white" stroke="black" cx="591.5" cy="-26.87" rx="181.95" ry="26.74"/>
<text text-anchor="middle" x="591.5" y="-30.67" font-family="Helvetica,sans-Serif" font-size="14.00">▶ Modify</text>
<text text-anchor="middle" x="591.5" y="-15.67" font-family="Helvetica,sans-Serif" font-size="14.00">mspaint/gdiplus/gdiplusgraphics.h</text>
</g>
<!-- e52e7483&#45;a2ef&#45;4bfe&#45;8182&#45;a27dffcf3fc6&#45;&gt;a628d95d&#45;14ca&#45;4aa4&#45;87c1&#45;89eadfcca040 -->
<g id="edge1" class="edge">
<title>e52e7483&#45;a2ef&#45;4bfe&#45;8182&#45;a27dffcf3fc6&#45;&gt;a628d95d&#45;14ca&#45;4aa4&#45;87c1&#45;89eadfcca040</title>
<path fill="none" stroke="black" d="M374.08,-26.87C382.62,-26.87 391.17,-26.87 399.71,-26.87"/>
<polygon fill="black" stroke="black" points="399.75,-30.37 409.75,-26.87 399.75,-23.37 399.75,-30.37"/>
</g>
<!-- a628d95d&#45;14ca&#45;4aa4&#45;87c1&#45;89eadfcca040&#45;&gt;end -->
<g id="edge3" class="edge">
<title>a628d95d&#45;14ca&#45;4aa4&#45;87c1&#45;89eadfcca040&#45;&gt;end</title>
<path fill="none" stroke="black" d="M773.4,-26.87C793.55,-26.87 810.49,-26.87 820.78,-26.87"/>
<polygon fill="black" stroke="black" points="820.86,-30.37 830.86,-26.87 820.86,-23.37 820.86,-30.37"/>
<text text-anchor="middle" x="802.11" y="-33.67" font-family="Helvetica,sans-Serif" font-size="14.00">Finish</text>
</g>
</g>
</svg>
