<?xml version="1.0" encoding="UTF-8" standalone="no"?>
<!DOCTYPE svg PUBLIC "-//W3C//DTD SVG 1.1//EN"
 "http://www.w3.org/Graphics/SVG/1.1/DTD/svg11.dtd">
<!-- Generated by graphviz version 2.43.0 (0)
 -->
<!-- Title: %3 Pages: 1 -->
<svg width="651pt" height="165pt"
 viewBox="0.00 0.00 651.00 164.74" xmlns="http://www.w3.org/2000/svg" xmlns:xlink="http://www.w3.org/1999/xlink">
<g id="graph0" class="graph" transform="scale(1 1) rotate(0) translate(36 128.74)">
<title>%3</title>
<polygon fill="dimgray" stroke="transparent" points="-36,36 -36,-128.74 615,-128.74 615,36 -36,36"/>
<text text-anchor="middle" x="289.5" y="-77.54" font-family="Helvetica,sans-Serif" font-size="14.00">Sweep&#39;s Plan &amp; Progress</text>
<!-- start -->
<g id="node1" class="node">
<title>start</title>
</g>
<!-- cedfabe3&#45;31f4&#45;4efb&#45;8a01&#45;3e1f8fdf18c4 -->
<g id="node3" class="node">
<title>cedfabe3&#45;31f4&#45;4efb&#45;8a01&#45;3e1f8fdf18c4</title>
<ellipse fill="#ee0000" stroke="black" cx="157.5" cy="-26.87" rx="105.22" ry="26.74"/>
<text text-anchor="middle" x="157.5" y="-30.67" font-family="Helvetica,sans-Serif" font-size="14.00">✗ Modify</text>
<text text-anchor="middle" x="157.5" y="-15.67" font-family="Helvetica,sans-Serif" font-size="14.00">mspaint/global.cpp</text>
</g>
<!-- start&#45;&gt;cedfabe3&#45;31f4&#45;4efb&#45;8a01&#45;3e1f8fdf18c4 -->
<g id="edge2" class="edge">
<title>start&#45;&gt;cedfabe3&#45;31f4&#45;4efb&#45;8a01&#45;3e1f8fdf18c4</title>
<path fill="none" stroke="black" d="M1.2,-26.87C4.69,-26.87 20.91,-26.87 41.67,-26.87"/>
<polygon fill="black" stroke="black" points="41.84,-30.37 51.84,-26.87 41.84,-23.37 41.84,-30.37"/>
<text text-anchor="middle" x="26.57" y="-33.67" font-family="Helvetica,sans-Serif" font-size="14.00">Start</text>
</g>
<!-- end -->
<g id="node2" class="node">
<title>end</title>
</g>
<!-- 4d4a2be1&#45;d3c6&#45;4ab0&#45;933a&#45;9d75f2f67086 -->
<g id="node4" class="node">
<title>4d4a2be1&#45;d3c6&#45;4ab0&#45;933a&#45;9d75f2f67086</title>
<ellipse fill="yellow" stroke="black" cx="409.5" cy="-26.87" rx="111.03" ry="26.74"/>
<text text-anchor="middle" x="409.5" y="-30.67" font-family="Helvetica,sans-Serif" font-size="14.00">⋯ Modify</text>
<text text-anchor="middle" x="409.5" y="-15.67" font-family="Helvetica,sans-Serif" font-size="14.00">mspaint/pbrush.cpp</text>
</g>
<!-- cedfabe3&#45;31f4&#45;4efb&#45;8a01&#45;3e1f8fdf18c4&#45;&gt;4d4a2be1&#45;d3c6&#45;4ab0&#45;933a&#45;9d75f2f67086 -->
<g id="edge1" class="edge">
<title>cedfabe3&#45;31f4&#45;4efb&#45;8a01&#45;3e1f8fdf18c4&#45;&gt;4d4a2be1&#45;d3c6&#45;4ab0&#45;933a&#45;9d75f2f67086</title>
<path fill="none" stroke="black" d="M263.32,-26.87C271.64,-26.87 279.96,-26.87 288.29,-26.87"/>
<polygon fill="black" stroke="black" points="288.44,-30.37 298.44,-26.87 288.44,-23.37 288.44,-30.37"/>
</g>
<!-- 4d4a2be1&#45;d3c6&#45;4ab0&#45;933a&#45;9d75f2f67086&#45;&gt;end -->
<g id="edge3" class="edge">
<title>4d4a2be1&#45;d3c6&#45;4ab0&#45;933a&#45;9d75f2f67086&#45;&gt;end</title>
<path fill="none" stroke="black" d="M520.81,-26.87C540.08,-26.87 557.27,-26.87 567.77,-26.87"/>
<polygon fill="black" stroke="black" points="567.83,-30.37 577.83,-26.87 567.83,-23.37 567.83,-30.37"/>
<text text-anchor="middle" x="549.26" y="-33.67" font-family="Helvetica,sans-Serif" font-size="14.00">Finish</text>
</g>
</g>
</svg>
