<?xml version="1.0" encoding="UTF-8" standalone="no"?>
<!DOCTYPE svg PUBLIC "-//W3C//DTD SVG 1.1//EN"
 "http://www.w3.org/Graphics/SVG/1.1/DTD/svg11.dtd">
<!-- Generated by graphviz version 2.43.0 (0)
 -->
<!-- Title: %3 Pages: 1 -->
<svg width="617pt" height="165pt"
 viewBox="0.00 0.00 617.00 164.74" xmlns="http://www.w3.org/2000/svg" xmlns:xlink="http://www.w3.org/1999/xlink">
<g id="graph0" class="graph" transform="scale(1 1) rotate(0) translate(36 128.74)">
<title>%3</title>
<polygon fill="dimgray" stroke="transparent" points="-36,36 -36,-128.74 581,-128.74 581,36 -36,36"/>
<text text-anchor="middle" x="272.5" y="-77.54" font-family="Helvetica,sans-Serif" font-size="14.00">Sweep&#39;s Plan &amp; Progress</text>
<!-- start -->
<g id="node1" class="node">
<title>start</title>
</g>
<!-- 9d0f597c&#45;ad2e&#45;44e6&#45;b4c5&#45;1d2ad1e081d3 -->
<g id="node3" class="node">
<title>9d0f597c&#45;ad2e&#45;44e6&#45;b4c5&#45;1d2ad1e081d3</title>
<ellipse fill="#0ee832" stroke="black" cx="157.5" cy="-26.87" rx="105.22" ry="26.74"/>
<text text-anchor="middle" x="157.5" y="-30.67" font-family="Helvetica,sans-Serif" font-size="14.00">✓ Modify</text>
<text text-anchor="middle" x="157.5" y="-15.67" font-family="Helvetica,sans-Serif" font-size="14.00">mspaint/global.cpp</text>
</g>
<!-- start&#45;&gt;9d0f597c&#45;ad2e&#45;44e6&#45;b4c5&#45;1d2ad1e081d3 -->
<g id="edge2" class="edge">
<title>start&#45;&gt;9d0f597c&#45;ad2e&#45;44e6&#45;b4c5&#45;1d2ad1e081d3</title>
<path fill="none" stroke="black" d="M1.2,-26.87C4.69,-26.87 20.91,-26.87 41.67,-26.87"/>
<polygon fill="black" stroke="black" points="41.84,-30.37 51.84,-26.87 41.84,-23.37 41.84,-30.37"/>
<text text-anchor="middle" x="26.57" y="-33.67" font-family="Helvetica,sans-Serif" font-size="14.00">Start</text>
</g>
<!-- end -->
<g id="node2" class="node">
<title>end</title>
</g>
<!-- cb62aa84&#45;b678&#45;489d&#45;9951&#45;cd57570c03ed -->
<g id="node4" class="node">
<title>cb62aa84&#45;b678&#45;489d&#45;9951&#45;cd57570c03ed</title>
<ellipse fill="yellow" stroke="black" cx="392.5" cy="-26.87" rx="94.09" ry="26.74"/>
<text text-anchor="middle" x="392.5" y="-30.67" font-family="Helvetica,sans-Serif" font-size="14.00">⋯ Modify</text>
<text text-anchor="middle" x="392.5" y="-15.67" font-family="Helvetica,sans-Serif" font-size="14.00">mspaint/global.h</text>
</g>
<!-- 9d0f597c&#45;ad2e&#45;44e6&#45;b4c5&#45;1d2ad1e081d3&#45;&gt;cb62aa84&#45;b678&#45;489d&#45;9951&#45;cd57570c03ed -->
<g id="edge1" class="edge">
<title>9d0f597c&#45;ad2e&#45;44e6&#45;b4c5&#45;1d2ad1e081d3&#45;&gt;cb62aa84&#45;b678&#45;489d&#45;9951&#45;cd57570c03ed</title>
<path fill="none" stroke="black" d="M263.07,-26.87C271.39,-26.87 279.72,-26.87 288.05,-26.87"/>
<polygon fill="black" stroke="black" points="288.21,-30.37 298.21,-26.87 288.21,-23.37 288.21,-30.37"/>
</g>
<!-- cb62aa84&#45;b678&#45;489d&#45;9951&#45;cd57570c03ed&#45;&gt;end -->
<g id="edge3" class="edge">
<title>cb62aa84&#45;b678&#45;489d&#45;9951&#45;cd57570c03ed&#45;&gt;end</title>
<path fill="none" stroke="black" d="M486.6,-26.87C505.54,-26.87 522.88,-26.87 533.55,-26.87"/>
<polygon fill="black" stroke="black" points="533.81,-30.37 543.81,-26.87 533.81,-23.37 533.81,-30.37"/>
<text text-anchor="middle" x="515.27" y="-33.67" font-family="Helvetica,sans-Serif" font-size="14.00">Finish</text>
</g>
</g>
</svg>
