<?xml version="1.0" encoding="UTF-8" standalone="no"?>
<!DOCTYPE svg PUBLIC "-//W3C//DTD SVG 1.1//EN"
 "http://www.w3.org/Graphics/SVG/1.1/DTD/svg11.dtd">
<!-- Generated by graphviz version 2.43.0 (0)
 -->
<!-- Title: %3 Pages: 1 -->
<svg width="868pt" height="165pt"
 viewBox="0.00 0.00 868.00 164.74" xmlns="http://www.w3.org/2000/svg" xmlns:xlink="http://www.w3.org/1999/xlink">
<g id="graph0" class="graph" transform="scale(1 1) rotate(0) translate(36 128.74)">
<title>%3</title>
<polygon fill="dimgray" stroke="transparent" points="-36,36 -36,-128.74 832,-128.74 832,36 -36,36"/>
<text text-anchor="middle" x="398" y="-77.54" font-family="Helvetica,sans-Serif" font-size="14.00">Sweep&#39;s Plan &amp; Progress</text>
<!-- start -->
<g id="node1" class="node">
<title>start</title>
</g>
<!-- c1d9f36c&#45;5bff&#45;4f8f&#45;9139&#45;1f01f48ecdde -->
<g id="node3" class="node">
<title>c1d9f36c&#45;5bff&#45;4f8f&#45;9139&#45;1f01f48ecdde</title>
<ellipse fill="#ee0000" stroke="black" cx="174.5" cy="-26.87" rx="121.74" ry="26.74"/>
<text text-anchor="middle" x="174.5" y="-30.67" font-family="Helvetica,sans-Serif" font-size="14.00">✗ Create</text>
<text text-anchor="middle" x="174.5" y="-15.67" font-family="Helvetica,sans-Serif" font-size="14.00">mspaint/zoom_slider.h</text>
</g>
<!-- start&#45;&gt;c1d9f36c&#45;5bff&#45;4f8f&#45;9139&#45;1f01f48ecdde -->
<g id="edge3" class="edge">
<title>start&#45;&gt;c1d9f36c&#45;5bff&#45;4f8f&#45;9139&#45;1f01f48ecdde</title>
<path fill="none" stroke="black" d="M1.28,-26.87C4.95,-26.87 21.35,-26.87 42.69,-26.87"/>
<polygon fill="black" stroke="black" points="42.82,-30.37 52.82,-26.87 42.82,-23.37 42.82,-30.37"/>
<text text-anchor="middle" x="26.94" y="-33.67" font-family="Helvetica,sans-Serif" font-size="14.00">Start</text>
</g>
<!-- end -->
<g id="node2" class="node">
<title>end</title>
</g>
<!-- a2ca9029&#45;9527&#45;480f&#45;9d50&#45;5cf8cc87b4b5 -->
<g id="node4" class="node">
<title>a2ca9029&#45;9527&#45;480f&#45;9d50&#45;5cf8cc87b4b5</title>
<ellipse fill="#ee0000" stroke="black" cx="422.5" cy="-26.87" rx="91.43" ry="26.74"/>
<text text-anchor="middle" x="422.5" y="-30.67" font-family="Helvetica,sans-Serif" font-size="14.00">✗ Modify</text>
<text text-anchor="middle" x="422.5" y="-15.67" font-family="Helvetica,sans-Serif" font-size="14.00">mspaint/bar.cpp</text>
</g>
<!-- c1d9f36c&#45;5bff&#45;4f8f&#45;9139&#45;1f01f48ecdde&#45;&gt;a2ca9029&#45;9527&#45;480f&#45;9d50&#45;5cf8cc87b4b5 -->
<g id="edge1" class="edge">
<title>c1d9f36c&#45;5bff&#45;4f8f&#45;9139&#45;1f01f48ecdde&#45;&gt;a2ca9029&#45;9527&#45;480f&#45;9d50&#45;5cf8cc87b4b5</title>
<path fill="none" stroke="black" d="M296.56,-26.87C304.63,-26.87 312.7,-26.87 320.78,-26.87"/>
<polygon fill="black" stroke="black" points="321,-30.37 331,-26.87 321,-23.37 321,-30.37"/>
</g>
<!-- 9627c2fc&#45;bc92&#45;4690&#45;b86c&#45;4deebd9dec06 -->
<g id="node5" class="node">
<title>9627c2fc&#45;bc92&#45;4690&#45;b86c&#45;4deebd9dec06</title>
<ellipse fill="yellow" stroke="black" cx="643.5" cy="-26.87" rx="94.09" ry="26.74"/>
<text text-anchor="middle" x="643.5" y="-30.67" font-family="Helvetica,sans-Serif" font-size="14.00">⋯ Modify</text>
<text text-anchor="middle" x="643.5" y="-15.67" font-family="Helvetica,sans-Serif" font-size="14.00">mspaint/global.h</text>
</g>
<!-- a2ca9029&#45;9527&#45;480f&#45;9d50&#45;5cf8cc87b4b5&#45;&gt;9627c2fc&#45;bc92&#45;4690&#45;b86c&#45;4deebd9dec06 -->
<g id="edge2" class="edge">
<title>a2ca9029&#45;9527&#45;480f&#45;9d50&#45;5cf8cc87b4b5&#45;&gt;9627c2fc&#45;bc92&#45;4690&#45;b86c&#45;4deebd9dec06</title>
<path fill="none" stroke="black" d="M514.01,-26.87C522.4,-26.87 530.79,-26.87 539.18,-26.87"/>
<polygon fill="black" stroke="black" points="539.42,-30.37 549.42,-26.87 539.42,-23.37 539.42,-30.37"/>
</g>
<!-- 9627c2fc&#45;bc92&#45;4690&#45;b86c&#45;4deebd9dec06&#45;&gt;end -->
<g id="edge4" class="edge">
<title>9627c2fc&#45;bc92&#45;4690&#45;b86c&#45;4deebd9dec06&#45;&gt;end</title>
<path fill="none" stroke="black" d="M737.6,-26.87C756.54,-26.87 773.88,-26.87 784.55,-26.87"/>
<polygon fill="black" stroke="black" points="784.81,-30.37 794.81,-26.87 784.81,-23.37 784.81,-30.37"/>
<text text-anchor="middle" x="766.27" y="-33.67" font-family="Helvetica,sans-Serif" font-size="14.00">Finish</text>
</g>
</g>
</svg>
