<?xml version="1.0" encoding="UTF-8" standalone="no"?>
<!DOCTYPE svg PUBLIC "-//W3C//DTD SVG 1.1//EN"
 "http://www.w3.org/Graphics/SVG/1.1/DTD/svg11.dtd">
<!-- Generated by graphviz version 2.43.0 (0)
 -->
<!-- Title: %3 Pages: 1 -->
<svg width="913pt" height="165pt"
 viewBox="0.00 0.00 913.00 164.74" xmlns="http://www.w3.org/2000/svg" xmlns:xlink="http://www.w3.org/1999/xlink">
<g id="graph0" class="graph" transform="scale(1 1) rotate(0) translate(36 128.74)">
<title>%3</title>
<polygon fill="dimgray" stroke="transparent" points="-36,36 -36,-128.74 877,-128.74 877,36 -36,36"/>
<text text-anchor="middle" x="420.5" y="-77.54" font-family="Helvetica,sans-Serif" font-size="14.00">Sweep&#39;s Plan &amp; Progress</text>
<!-- start -->
<g id="node1" class="node">
<title>start</title>
</g>
<!-- a0f30741&#45;c2d0&#45;4501&#45;b2cf&#45;50f1aceb0702 -->
<g id="node3" class="node">
<title>a0f30741&#45;c2d0&#45;4501&#45;b2cf&#45;50f1aceb0702</title>
<ellipse fill="#0ee832" stroke="black" cx="185.5" cy="-26.87" rx="132.87" ry="26.74"/>
<text text-anchor="middle" x="185.5" y="-30.67" font-family="Helvetica,sans-Serif" font-size="14.00">✓ Create</text>
<text text-anchor="middle" x="185.5" y="-15.67" font-family="Helvetica,sans-Serif" font-size="14.00">mspaint/zoom_slider.cpp</text>
</g>
<!-- start&#45;&gt;a0f30741&#45;c2d0&#45;4501&#45;b2cf&#45;50f1aceb0702 -->
<g id="edge3" class="edge">
<title>start&#45;&gt;a0f30741&#45;c2d0&#45;4501&#45;b2cf&#45;50f1aceb0702</title>
<path fill="none" stroke="black" d="M1.03,-26.87C4.13,-26.87 20.53,-26.87 42.37,-26.87"/>
<polygon fill="black" stroke="black" points="42.4,-30.37 52.4,-26.87 42.4,-23.37 42.4,-30.37"/>
<text text-anchor="middle" x="26.78" y="-33.67" font-family="Helvetica,sans-Serif" font-size="14.00">Start</text>
</g>
<!-- end -->
<g id="node2" class="node">
<title>end</title>
</g>
<!-- 8220c129&#45;cc29&#45;4d1c&#45;9276&#45;1c66aa623731 -->
<g id="node4" class="node">
<title>8220c129&#45;cc29&#45;4d1c&#45;9276&#45;1c66aa623731</title>
<ellipse fill="#ee0000" stroke="black" cx="459.5" cy="-26.87" rx="105.22" ry="26.74"/>
<text text-anchor="middle" x="459.5" y="-30.67" font-family="Helvetica,sans-Serif" font-size="14.00">✗ Modify</text>
<text text-anchor="middle" x="459.5" y="-15.67" font-family="Helvetica,sans-Serif" font-size="14.00">mspaint/global.cpp</text>
</g>
<!-- a0f30741&#45;c2d0&#45;4501&#45;b2cf&#45;50f1aceb0702&#45;&gt;8220c129&#45;cc29&#45;4d1c&#45;9276&#45;1c66aa623731 -->
<g id="edge1" class="edge">
<title>a0f30741&#45;c2d0&#45;4501&#45;b2cf&#45;50f1aceb0702&#45;&gt;8220c129&#45;cc29&#45;4d1c&#45;9276&#45;1c66aa623731</title>
<path fill="none" stroke="black" d="M318.49,-26.87C326.91,-26.87 335.33,-26.87 343.75,-26.87"/>
<polygon fill="black" stroke="black" points="344.02,-30.37 354.02,-26.87 344.02,-23.37 344.02,-30.37"/>
</g>
<!-- 39225e66&#45;329a&#45;4e5d&#45;9850&#45;7e5c58aa25e7 -->
<g id="node5" class="node">
<title>39225e66&#45;329a&#45;4e5d&#45;9850&#45;7e5c58aa25e7</title>
<ellipse fill="#0ee832" stroke="black" cx="691.5" cy="-26.87" rx="91.43" ry="26.74"/>
<text text-anchor="middle" x="691.5" y="-30.67" font-family="Helvetica,sans-Serif" font-size="14.00">✓ Modify</text>
<text text-anchor="middle" x="691.5" y="-15.67" font-family="Helvetica,sans-Serif" font-size="14.00">mspaint/bar.cpp</text>
</g>
<!-- 8220c129&#45;cc29&#45;4d1c&#45;9276&#45;1c66aa623731&#45;&gt;39225e66&#45;329a&#45;4e5d&#45;9850&#45;7e5c58aa25e7 -->
<g id="edge2" class="edge">
<title>8220c129&#45;cc29&#45;4d1c&#45;9276&#45;1c66aa623731&#45;&gt;39225e66&#45;329a&#45;4e5d&#45;9850&#45;7e5c58aa25e7</title>
<path fill="none" stroke="black" d="M565.08,-26.87C573.39,-26.87 581.7,-26.87 590.01,-26.87"/>
<polygon fill="black" stroke="black" points="590.14,-30.37 600.14,-26.87 590.14,-23.37 590.14,-30.37"/>
</g>
<!-- 39225e66&#45;329a&#45;4e5d&#45;9850&#45;7e5c58aa25e7&#45;&gt;end -->
<g id="edge4" class="edge">
<title>39225e66&#45;329a&#45;4e5d&#45;9850&#45;7e5c58aa25e7&#45;&gt;end</title>
<path fill="none" stroke="black" d="M782.89,-26.87C801.67,-26.87 818.94,-26.87 829.57,-26.87"/>
<polygon fill="black" stroke="black" points="829.81,-30.37 839.81,-26.87 829.81,-23.37 829.81,-30.37"/>
<text text-anchor="middle" x="811.36" y="-33.67" font-family="Helvetica,sans-Serif" font-size="14.00">Finish</text>
</g>
</g>
</svg>
